<?xml version="1.0" standalone="no"?>
<!DOCTYPE svg PUBLIC "-//W3C//DTD SVG 20010904//EN"
 "http://www.w3.org/TR/2001/REC-SVG-20010904/DTD/svg10.dtd">
<svg version="1.0" xmlns="http://www.w3.org/2000/svg"
 width="130.000000pt" height="130.000000pt" viewBox="0 0 130.000000 130.000000"
 preserveAspectRatio="xMidYMid meet">
<metadata>
Created by potrace 1.14, written by Peter Selinger 2001-2017
</metadata>
<g transform="translate(0.000000,130.000000) scale(0.100000,-0.100000)"
fill="#000000" stroke="none">
<path d="M860 1148 c0 -12 -9 -45 -19 -73 -21 -55 -46 -198 -55 -314 l-6 -74
29 32 c16 17 34 31 40 31 8 0 11 -49 11 -155 0 -130 2 -155 15 -155 12 0 15
27 17 158 l3 157 34 -33 33 -33 -7 88 c-8 106 -39 273 -56 305 -7 12 -12 36
-13 52 -1 35 -26 49 -26 14z"/>
<path d="M750 1101 c-108 -33 -214 -124 -260 -224 -32 -69 -49 -147 -32 -147
6 0 14 5 17 10 12 20 75 11 101 -15 31 -32 34 -31 34 3 0 45 36 175 64 230 31
61 71 109 111 133 24 15 26 19 10 18 -11 0 -31 -4 -45 -8z"/>
<path d="M965 1089 c89 -71 135 -169 171 -366 l4 -22 25 25 c26 26 72 32 107
13 20 -11 21 -10 14 37 -19 144 -171 303 -316 330 l-35 7 30 -24z"/>
<path d="M106 528 l-25 -23 70 -97 c47 -67 76 -98 89 -98 18 0 20 -7 20 -61 0
-54 2 -60 18 -54 9 4 25 10 35 12 13 4 17 16 17 54 l0 49 150 0 150 0 0 -39
c0 -37 2 -39 35 -43 l35 -4 0 43 c0 41 1 43 30 43 28 0 30 3 30 35 l0 35 -243
0 c-247 0 -290 6 -250 35 22 16 11 50 -30 99 -31 36 -35 38 -56 25 -19 -11
-25 -11 -28 -1 -7 18 -19 15 -47 -10z"/>
</g>
</svg>
